#!OML:ASF I:\Random Stuff\random\construction\7_22_03\Session 2\subj1.ASF
:FULLY-SPECIFIED
:DEGREES
878
root 4.26582 17.7113 -8.62376 13.5774 -31.5292 -4.8028
lowerback 4.40851 -1.84078 -1.60955
upperback 0.827729 -2.53622 -0.418889
thorax -1.56825 -1.25993 0.614745
lowerneck -10.3312 -7.51264 -14.3762
upperneck 34.1343 -12.0871 11.1355
head 15.3032 -5.91563 5.13075
rclavicle 6.2816e-014 -1.35174e-014
rhumerus -38.0059 18.7552 -82.2277
rradius 86.0527
rwrist 1.52354
rhand -25.1966 17.3736
rfingers 7.12502
rthumb 1.32165 -12.6021
lclavicle 6.2816e-014 -1.35174e-014
lhumerus -18.1529 -65.0246 99.9134
lradius 79.3759
lwrist -4.01935
lhand -6.10868 52.6539
lfingers 7.12502
lthumb 19.7279 441.673
rfemur -14.2818 7.36775 18.391
rtibia 6.27981
rfoot -1.36455 -7.65188
rtoes -15.6369
lfemur -12.0262 -12.8011 -8.38371
ltibia 18.7929
lfoot -16.6795 22.9287
ltoes -29.7392
879
root 4.27232 17.7128 -8.61668 13.6925 -31.8613 -5.04944
lowerback 4.14443 -1.92772 -1.69562
upperback 0.729026 -2.64761 -0.215301
thorax -1.50598 -1.31467 0.869314
lowerneck -10.3474 -7.4628 -14.3615
upperneck 34.1509 -12.0595 11.2088
head 15.3142 -5.8981 5.16551
rclavicle -1.39149e-014 8.74653e-015
rhumerus -38.7326 18.6934 -82.6776
rradius 86.014
rwrist 2.54297
rhand -26.1857 18.2799
rfingers 7.12502
rthumb 0.366408 -11.6995
lclavicle -1.39149e-014 8.74653e-015
lhumerus -19.3718 -63.9265 100.408
lradius 80.5558
lwrist -3.14647
lhand -5.75005 53.0536
lfingers 7.12502
lthumb 20.0726 442.037
rfemur -13.2492 7.82238 18.5094
rtibia 4.23223
rfoot -0.42254 -7.51893
rtoes -16.0616
lfemur -11.9258 -12.7379 -8.27366
ltibia 18.9155
lfoot -16.9126 23.1314
ltoes -29.145
880
root 4.28201 17.7166 -8.61029 13.8766 -32.1425 -5.3372
lowerback 3.89811 -1.99841 -1.6293
upperback 0.588734 -2.73261 -0.0606184
thorax -1.50551 -1.35621 0.988479
lowerneck -10.3163 -7.48305 -14.2243
upperneck 34.2373 -12.1904 11.2801
head 15.3674 -5.93656 5.15222
rclavicle -4.67144e-014 2.3059e-014
rhumerus -39.4446 18.5051 -83.1717
rradius 85.948
rwrist 3.58535
rhand -26.937 19.3889
rfingers 7.12502
rthumb -0.359215 -10.5906
lclavicle -4.67144e-014 2.3059e-014
lhumerus -20.5895 -62.9977 100.817
lradius 81.5264
lwrist -2.17506
lhand -5.78869 52.0169
lfingers 7.12502
lthumb 20.0355 441.004
rfemur -11.1582 8.23211 18.6534
rtibia -7.35503e-015
rfoot 1.61312 -7.22831
rtoes -15.9225
lfemur -11.9069 -12.6076 -8.10933
ltibia 19.0501
lfoot -17.1662 23.2361
ltoes -28.4861
881
root 4.29434 17.7181 -8.60386 13.978 -32.3197 -5.60777
lowerback 3.77512 -2.06 -1.48926
upperback 0.452403 -2.80513 0.0918559
thorax -1.57364 -1.39136 1.06826
lowerneck -10.4735 -7.44787 -13.6931
upperneck 34.3054 -12.1094 10.8512
head 15.3355 -5.87835 4.88245
rclavicle -1.0138e-013 2.14687e-014
rhumerus -40.1514 18.3024 -83.581
rradius 85.8656
rwrist 4.59762
rhand -27.9173 20.1777
rfingers 7.12502
rthumb -1.30606 -9.79806
lclavicle -1.0138e-013 2.14687e-014
lhumerus -21.9016 -62.069 101.356
lradius 82.2978
lwrist -1.60588
lhand -5.17258 53.1222
lfingers 7.12502
lthumb 20.6276 442.046
rfemur -11.1064 8.53542 18.8067
rtibia 1.66979e-014
rfoot 1.52646 -7.33119
rtoes -16.3367
lfemur -11.8384 -12.6453 -7.95268
ltibia 19.1735
lfoot -17.4399 23.4336
ltoes -28.0428
882
root 4.3063 17.7173 -8.59715 14.0603 -32.5021 -5.89552
lowerback 3.68403 -2.1272 -1.36193
upperback 0.331979 -2.88515 0.304565
thorax -1.63929 -1.4303 1.21801
lowerneck -10.8901 -7.27073 -14.274
upperneck 34.7492 -11.9245 11.4185
head 15.7223 -5.80738 5.28352
rclavicle -1.54257e-013 1.03368e-014
rhumerus -40.7465 18.1881 -83.9237
rradius 85.7672
rwrist 5.44304
rhand -28.875 20.9434
rfingers 7.12502
rthumb -2.231 -9.02464
lclavicle -1.54257e-013 1.03368e-014
lhumerus -23.3166 -60.9269 102.004
lradius 82.9522
lwrist -1.28663
lhand -4.96688 52.7676
lfingers 7.12502
lthumb 20.8252 441.67
rfemur -11.0187 8.8475 18.9746
rtibia 1.78906e-015
rfoot 1.40692 -7.35019
rtoes -16.9302
lfemur -11.7235 -12.8592 -7.78423
ltibia 19.2803
lfoot -17.744 23.783
ltoes -27.5471
